<mxfile host="app.diagrams.net" modified="2023-11-10T03:08:24.506Z" agent="Mozilla/5.0 (X11; Ubuntu; Linux x86_64; rv:109.0) Gecko/20100101 Firefox/119.0" etag="1mYniwXIrN5cTJjqVoCZ" version="22.0.8" type="google">
  <diagram name="Page-1" id="07cV-aceh9XkrfsgIkOI">
    <mxGraphModel grid="1" page="1" gridSize="10" guides="1" tooltips="1" connect="1" arrows="1" fold="1" pageScale="1" pageWidth="1700" pageHeight="1100" math="0" shadow="0">
      <root>
        <mxCell id="0" />
        <mxCell id="1" parent="0" />
        <mxCell id="PoMqkKQTPA6UqUHY73O2-1" value="&lt;h2&gt;&lt;font color=&quot;#ffffff&quot;&gt;Customer&lt;/font&gt;&lt;/h2&gt;" style="html=1;whiteSpace=wrap;fillColor=#97D077;" vertex="1" parent="1">
          <mxGeometry x="-320" y="40" width="160" height="120" as="geometry" />
        </mxCell>
        <mxCell id="PoMqkKQTPA6UqUHY73O2-2" value="&lt;h2&gt;&lt;font color=&quot;#ffffff&quot;&gt;Pickup Station&lt;/font&gt;&lt;br&gt;&lt;/h2&gt;" style="html=1;whiteSpace=wrap;fillColor=#97D077;" vertex="1" parent="1">
          <mxGeometry x="220" y="130" width="120" height="80" as="geometry" />
        </mxCell>
        <mxCell id="PoMqkKQTPA6UqUHY73O2-3" value="&lt;h3&gt;Product Items&lt;br&gt;&lt;/h3&gt;" style="html=1;verticalAlign=bottom;endArrow=block;curved=0;rounded=0;entryX=0.5;entryY=0;entryDx=0;entryDy=0;exitX=1.006;exitY=0.35;exitDx=0;exitDy=0;exitPerimeter=0;" edge="1" parent="1" source="PoMqkKQTPA6UqUHY73O2-1" target="PoMqkKQTPA6UqUHY73O2-2">
          <mxGeometry x="-0.3077" y="10" width="80" relative="1" as="geometry">
            <mxPoint x="160" y="80" as="sourcePoint" />
            <mxPoint x="240" y="80" as="targetPoint" />
            <Array as="points">
              <mxPoint x="280" y="80" />
            </Array>
            <mxPoint as="offset" />
          </mxGeometry>
        </mxCell>
        <mxCell id="PoMqkKQTPA6UqUHY73O2-4" value="&lt;h2&gt;&lt;font color=&quot;#ffffff&quot;&gt;Refund?&lt;/font&gt;&lt;/h2&gt;" style="ellipse;whiteSpace=wrap;html=1;aspect=fixed;fillColor=#FFD966;" vertex="1" parent="1">
          <mxGeometry x="40" y="320" width="120" height="120" as="geometry" />
        </mxCell>
        <mxCell id="PoMqkKQTPA6UqUHY73O2-6" value="&lt;h2&gt;&lt;font color=&quot;#ffffff&quot;&gt;Exchange?&lt;/font&gt;&lt;br&gt;&lt;/h2&gt;" style="ellipse;whiteSpace=wrap;html=1;aspect=fixed;fillColor=#FFD966;" vertex="1" parent="1">
          <mxGeometry x="400" y="320" width="120" height="120" as="geometry" />
        </mxCell>
        <mxCell id="PoMqkKQTPA6UqUHY73O2-7" value="&lt;h3&gt;Product Items + UserID&lt;br&gt;&lt;/h3&gt;" style="html=1;verticalAlign=bottom;endArrow=block;curved=0;rounded=0;entryX=0.5;entryY=0;entryDx=0;entryDy=0;" edge="1" parent="1" target="PoMqkKQTPA6UqUHY73O2-4">
          <mxGeometry width="80" relative="1" as="geometry">
            <mxPoint x="280" y="280" as="sourcePoint" />
            <mxPoint x="360" y="280" as="targetPoint" />
            <Array as="points">
              <mxPoint x="100" y="280" />
            </Array>
            <mxPoint as="offset" />
          </mxGeometry>
        </mxCell>
        <mxCell id="PoMqkKQTPA6UqUHY73O2-8" value="&lt;h3&gt;Product Items + UserID&lt;br&gt;&lt;/h3&gt;" style="html=1;verticalAlign=bottom;endArrow=block;curved=0;rounded=0;entryX=0.5;entryY=0;entryDx=0;entryDy=0;exitX=0.5;exitY=1;exitDx=0;exitDy=0;" edge="1" parent="1" source="PoMqkKQTPA6UqUHY73O2-2" target="PoMqkKQTPA6UqUHY73O2-6">
          <mxGeometry x="0.2308" width="80" relative="1" as="geometry">
            <mxPoint x="280" y="280" as="sourcePoint" />
            <mxPoint x="360" y="280" as="targetPoint" />
            <Array as="points">
              <mxPoint x="280" y="280" />
              <mxPoint x="460" y="280" />
            </Array>
            <mxPoint as="offset" />
          </mxGeometry>
        </mxCell>
        <mxCell id="PoMqkKQTPA6UqUHY73O2-9" value="&lt;h2&gt;&lt;font color=&quot;#ffffff&quot;&gt;Product Reviewer&lt;/font&gt;&lt;br&gt;&lt;/h2&gt;" style="html=1;whiteSpace=wrap;fillColor=#97D077;" vertex="1" parent="1">
          <mxGeometry x="220" y="480" width="120" height="80" as="geometry" />
        </mxCell>
        <mxCell id="PoMqkKQTPA6UqUHY73O2-10" value="&lt;h3&gt;&lt;br&gt;&lt;/h3&gt;" style="html=1;verticalAlign=bottom;endArrow=block;curved=0;rounded=0;entryX=0;entryY=0.25;entryDx=0;entryDy=0;" edge="1" parent="1" target="PoMqkKQTPA6UqUHY73O2-9">
          <mxGeometry x="0.4" y="10" width="80" relative="1" as="geometry">
            <mxPoint x="100" y="440" as="sourcePoint" />
            <mxPoint x="180" y="440" as="targetPoint" />
            <Array as="points">
              <mxPoint x="100" y="500" />
            </Array>
            <mxPoint as="offset" />
          </mxGeometry>
        </mxCell>
        <mxCell id="PoMqkKQTPA6UqUHY73O2-11" value="" style="html=1;verticalAlign=bottom;endArrow=block;curved=0;rounded=0;entryX=1;entryY=0.25;entryDx=0;entryDy=0;" edge="1" parent="1" target="PoMqkKQTPA6UqUHY73O2-9">
          <mxGeometry x="0.4" y="-10" width="80" relative="1" as="geometry">
            <mxPoint x="460" y="440" as="sourcePoint" />
            <mxPoint x="540" y="440" as="targetPoint" />
            <Array as="points">
              <mxPoint x="460" y="500" />
            </Array>
            <mxPoint as="offset" />
          </mxGeometry>
        </mxCell>
        <mxCell id="PoMqkKQTPA6UqUHY73O2-12" value="&lt;h3&gt;Reject Refund/Exchange Process&lt;/h3&gt;&lt;div&gt;&lt;h3&gt;Customer Picks up Product Items at Pickup Station&lt;/h3&gt;&lt;/div&gt;" style="html=1;verticalAlign=bottom;endArrow=block;curved=0;rounded=0;entryX=0.25;entryY=1;entryDx=0;entryDy=0;" edge="1" parent="1" target="PoMqkKQTPA6UqUHY73O2-1">
          <mxGeometry x="-0.4493" y="60" width="80" relative="1" as="geometry">
            <mxPoint x="220" y="540" as="sourcePoint" />
            <mxPoint x="300" y="540" as="targetPoint" />
            <Array as="points">
              <mxPoint y="540" />
              <mxPoint y="350" />
              <mxPoint y="270" />
              <mxPoint x="-280" y="270" />
            </Array>
            <mxPoint as="offset" />
          </mxGeometry>
        </mxCell>
        <mxCell id="PoMqkKQTPA6UqUHY73O2-14" value="&lt;h2&gt;&lt;font color=&quot;#ffffff&quot;&gt;Process Refund Transactions&lt;/font&gt;&lt;br&gt;&lt;/h2&gt;" style="ellipse;whiteSpace=wrap;html=1;aspect=fixed;fillColor=#FFD966;" vertex="1" parent="1">
          <mxGeometry x="40" y="710" width="120" height="120" as="geometry" />
        </mxCell>
        <mxCell id="PoMqkKQTPA6UqUHY73O2-16" value="&lt;h2&gt;&lt;font color=&quot;#ffffff&quot;&gt;Payment Gateway&lt;/font&gt;&lt;br&gt;&lt;/h2&gt;" style="html=1;whiteSpace=wrap;fillColor=#97D077;" vertex="1" parent="1">
          <mxGeometry x="-310" y="720" width="160" height="120" as="geometry" />
        </mxCell>
        <mxCell id="PoMqkKQTPA6UqUHY73O2-17" value="&lt;h3&gt;B2C Refund Transaction&lt;/h3&gt;" style="html=1;verticalAlign=bottom;endArrow=block;curved=0;rounded=0;entryX=1;entryY=0.25;entryDx=0;entryDy=0;exitX=0.083;exitY=0.333;exitDx=0;exitDy=0;exitPerimeter=0;" edge="1" parent="1" source="PoMqkKQTPA6UqUHY73O2-14" target="PoMqkKQTPA6UqUHY73O2-16">
          <mxGeometry width="80" relative="1" as="geometry">
            <mxPoint x="50" y="690" as="sourcePoint" />
            <mxPoint x="130" y="690" as="targetPoint" />
          </mxGeometry>
        </mxCell>
        <mxCell id="PoMqkKQTPA6UqUHY73O2-18" value="&lt;h3&gt;Payment&lt;/h3&gt;&lt;h3&gt;Confirmation Response&lt;/h3&gt;" style="html=1;verticalAlign=bottom;endArrow=block;curved=0;rounded=0;entryX=0.083;entryY=0.667;entryDx=0;entryDy=0;entryPerimeter=0;exitX=1.031;exitY=0.567;exitDx=0;exitDy=0;exitPerimeter=0;" edge="1" parent="1" source="PoMqkKQTPA6UqUHY73O2-16" target="PoMqkKQTPA6UqUHY73O2-14">
          <mxGeometry x="0.0479" y="-40" width="80" relative="1" as="geometry">
            <mxPoint x="-160" y="740" as="sourcePoint" />
            <mxPoint x="-80" y="740" as="targetPoint" />
            <mxPoint as="offset" />
          </mxGeometry>
        </mxCell>
        <mxCell id="PoMqkKQTPA6UqUHY73O2-19" value="&lt;h3&gt;Dispatch Refund Process&lt;/h3&gt;" style="html=1;verticalAlign=bottom;endArrow=block;curved=0;rounded=0;entryX=0.5;entryY=0;entryDx=0;entryDy=0;" edge="1" parent="1" target="PoMqkKQTPA6UqUHY73O2-14">
          <mxGeometry x="0.3333" y="-10" width="80" relative="1" as="geometry">
            <mxPoint x="280" y="560" as="sourcePoint" />
            <mxPoint x="360" y="560" as="targetPoint" />
            <Array as="points">
              <mxPoint x="280" y="660" />
              <mxPoint x="100" y="660" />
            </Array>
            <mxPoint as="offset" />
          </mxGeometry>
        </mxCell>
        <mxCell id="PoMqkKQTPA6UqUHY73O2-20" value="&lt;h2&gt;&lt;font color=&quot;#ffffff&quot;&gt;Process Confirmation Response&lt;br&gt;&lt;/font&gt;&lt;/h2&gt;" style="ellipse;whiteSpace=wrap;html=1;aspect=fixed;fillColor=#FFD966;" vertex="1" parent="1">
          <mxGeometry x="40" y="920" width="120" height="120" as="geometry" />
        </mxCell>
        <mxCell id="PoMqkKQTPA6UqUHY73O2-21" value="&lt;h3&gt;Payment Confirmation Response&lt;/h3&gt;" style="html=1;verticalAlign=bottom;endArrow=block;curved=0;rounded=0;entryX=0.5;entryY=0;entryDx=0;entryDy=0;" edge="1" parent="1" target="PoMqkKQTPA6UqUHY73O2-20">
          <mxGeometry x="0.3333" width="80" relative="1" as="geometry">
            <mxPoint x="100" y="830" as="sourcePoint" />
            <mxPoint x="180" y="830" as="targetPoint" />
            <mxPoint as="offset" />
          </mxGeometry>
        </mxCell>
        <mxCell id="PoMqkKQTPA6UqUHY73O2-22" value="&lt;h3&gt;Refund Successful/ Scheduled Payment Message&lt;/h3&gt;" style="html=1;verticalAlign=bottom;endArrow=block;curved=0;rounded=0;entryX=0.5;entryY=1;entryDx=0;entryDy=0;exitX=0;exitY=0.5;exitDx=0;exitDy=0;" edge="1" parent="1" source="PoMqkKQTPA6UqUHY73O2-20" target="PoMqkKQTPA6UqUHY73O2-1">
          <mxGeometry x="-0.2985" y="-60" width="80" relative="1" as="geometry">
            <mxPoint x="-10" y="980" as="sourcePoint" />
            <mxPoint x="70" y="980" as="targetPoint" />
            <Array as="points">
              <mxPoint x="-360" y="980" />
              <mxPoint x="-360" y="360" />
              <mxPoint x="-240" y="360" />
            </Array>
            <mxPoint as="offset" />
          </mxGeometry>
        </mxCell>
        <mxCell id="PoMqkKQTPA6UqUHY73O2-23" value="&lt;h2&gt;&lt;font color=&quot;#ffffff&quot;&gt;Update Inventory&lt;br&gt;&lt;/font&gt;&lt;/h2&gt;" style="ellipse;whiteSpace=wrap;html=1;aspect=fixed;fillColor=#FFD966;" vertex="1" parent="1">
          <mxGeometry x="40" y="1120" width="120" height="120" as="geometry" />
        </mxCell>
        <mxCell id="PoMqkKQTPA6UqUHY73O2-24" value="&lt;h2&gt;&lt;font color=&quot;#ffffff&quot;&gt;&amp;nbsp;&amp;nbsp;&amp;nbsp;&amp;nbsp;&amp;nbsp;&amp;nbsp; Inventory&lt;/font&gt;&lt;br&gt;&lt;/h2&gt;" style="html=1;dashed=0;whiteSpace=wrap;shape=mxgraph.dfd.dataStoreID;align=left;spacingLeft=3;points=[[0,0],[0.5,0],[1,0],[0,0.5],[1,0.5],[0,1],[0.5,1],[1,1]];fillColor=#FF8000;" vertex="1" parent="1">
          <mxGeometry x="-240" y="1280" width="160" height="50" as="geometry" />
        </mxCell>
        <mxCell id="PoMqkKQTPA6UqUHY73O2-26" value="&lt;h2&gt;&lt;font color=&quot;#ffffff&quot;&gt;&amp;nbsp;&amp;nbsp;&amp;nbsp;&amp;nbsp;&amp;nbsp;&amp;nbsp; Payments&lt;br&gt;&lt;/font&gt;&lt;/h2&gt;" style="html=1;dashed=0;whiteSpace=wrap;shape=mxgraph.dfd.dataStoreID;align=left;spacingLeft=3;points=[[0,0],[0.5,0],[1,0],[0,0.5],[1,0.5],[0,1],[0.5,1],[1,1]];fillColor=#FF8000;" vertex="1" parent="1">
          <mxGeometry x="-240" y="1170" width="160" height="50" as="geometry" />
        </mxCell>
        <mxCell id="PoMqkKQTPA6UqUHY73O2-28" value="&lt;h3&gt;Product Items&lt;/h3&gt;" style="html=1;verticalAlign=bottom;endArrow=block;curved=0;rounded=0;entryX=0.5;entryY=0.083;entryDx=0;entryDy=0;entryPerimeter=0;exitX=0.5;exitY=1;exitDx=0;exitDy=0;" edge="1" parent="1" source="PoMqkKQTPA6UqUHY73O2-20" target="PoMqkKQTPA6UqUHY73O2-23">
          <mxGeometry x="0.3339" width="80" relative="1" as="geometry">
            <mxPoint x="100" y="1070" as="sourcePoint" />
            <mxPoint x="180" y="1070" as="targetPoint" />
            <mxPoint as="offset" />
          </mxGeometry>
        </mxCell>
        <mxCell id="PoMqkKQTPA6UqUHY73O2-29" value="&lt;h3&gt;Scheduled B2C&amp;nbsp;&lt;/h3&gt;&lt;h3&gt;or&lt;/h3&gt;&lt;h3&gt;&amp;nbsp;Successful B2C Transaction&lt;/h3&gt;" style="html=1;verticalAlign=bottom;endArrow=block;curved=0;rounded=0;entryX=0;entryY=0.5;entryDx=0;entryDy=0;" edge="1" parent="1" target="PoMqkKQTPA6UqUHY73O2-26">
          <mxGeometry x="0.543" width="80" relative="1" as="geometry">
            <mxPoint x="50" y="1010" as="sourcePoint" />
            <mxPoint x="50" y="1050" as="targetPoint" />
            <Array as="points">
              <mxPoint x="-360" y="1010" />
              <mxPoint x="-360" y="1195" />
            </Array>
            <mxPoint as="offset" />
          </mxGeometry>
        </mxCell>
        <mxCell id="PoMqkKQTPA6UqUHY73O2-30" value="&lt;h3&gt;Return Product Items&lt;/h3&gt;" style="html=1;verticalAlign=bottom;endArrow=block;curved=0;rounded=0;entryX=0;entryY=0.5;entryDx=0;entryDy=0;exitX=0;exitY=0.5;exitDx=0;exitDy=0;" edge="1" parent="1" source="PoMqkKQTPA6UqUHY73O2-23" target="PoMqkKQTPA6UqUHY73O2-24">
          <mxGeometry x="0.5597" width="80" relative="1" as="geometry">
            <mxPoint x="-50" y="1240" as="sourcePoint" />
            <mxPoint x="-450" y="1365" as="targetPoint" />
            <Array as="points">
              <mxPoint y="1180" />
              <mxPoint y="1380" />
              <mxPoint x="-360" y="1380" />
              <mxPoint x="-360" y="1305" />
            </Array>
            <mxPoint as="offset" />
          </mxGeometry>
        </mxCell>
        <mxCell id="PoMqkKQTPA6UqUHY73O2-31" value="&lt;h2&gt;&lt;font color=&quot;#ffffff&quot;&gt;Process Product Exchange&lt;br&gt;&lt;/font&gt;&lt;/h2&gt;" style="ellipse;whiteSpace=wrap;html=1;aspect=fixed;fillColor=#FFD966;" vertex="1" parent="1">
          <mxGeometry x="400" y="720" width="120" height="120" as="geometry" />
        </mxCell>
        <mxCell id="PoMqkKQTPA6UqUHY73O2-35" value="&lt;h3&gt;Dispatch Exchange Process&lt;/h3&gt;" style="html=1;verticalAlign=bottom;endArrow=block;curved=0;rounded=0;exitX=0.5;exitY=1;exitDx=0;exitDy=0;entryX=0.5;entryY=0;entryDx=0;entryDy=0;" edge="1" parent="1" source="PoMqkKQTPA6UqUHY73O2-9" target="PoMqkKQTPA6UqUHY73O2-31">
          <mxGeometry x="0.2353" y="10" width="80" relative="1" as="geometry">
            <mxPoint x="230" y="700" as="sourcePoint" />
            <mxPoint x="310" y="700" as="targetPoint" />
            <Array as="points">
              <mxPoint x="280" y="660" />
              <mxPoint x="460" y="660" />
            </Array>
            <mxPoint as="offset" />
          </mxGeometry>
        </mxCell>
        <mxCell id="PoMqkKQTPA6UqUHY73O2-36" value="&lt;h2&gt;&lt;font color=&quot;#ffffff&quot;&gt;&amp;nbsp;&amp;nbsp;&amp;nbsp;&amp;nbsp;&amp;nbsp; Defective Products&lt;/font&gt;&lt;br&gt;&lt;/h2&gt;" style="html=1;dashed=0;whiteSpace=wrap;shape=mxgraph.dfd.dataStoreID;align=left;spacingLeft=3;points=[[0,0],[0.5,0],[1,0],[0,0.5],[1,0.5],[0,1],[0.5,1],[1,1]];fillColor=#FF8000;" vertex="1" parent="1">
          <mxGeometry x="740" y="755" width="200" height="50" as="geometry" />
        </mxCell>
        <mxCell id="PoMqkKQTPA6UqUHY73O2-37" value="&lt;h3&gt;Product Items&lt;/h3&gt;" style="html=1;verticalAlign=bottom;endArrow=block;curved=0;rounded=0;exitX=1;exitY=0.5;exitDx=0;exitDy=0;" edge="1" parent="1" source="PoMqkKQTPA6UqUHY73O2-31" target="PoMqkKQTPA6UqUHY73O2-36">
          <mxGeometry width="80" relative="1" as="geometry">
            <mxPoint x="560" y="770" as="sourcePoint" />
            <mxPoint x="640" y="770" as="targetPoint" />
          </mxGeometry>
        </mxCell>
        <mxCell id="PoMqkKQTPA6UqUHY73O2-38" value="&lt;h2&gt;&lt;font color=&quot;#ffffff&quot;&gt;&amp;nbsp;&amp;nbsp;&amp;nbsp;&amp;nbsp;&amp;nbsp; Orders&lt;br&gt;&lt;/font&gt;&lt;/h2&gt;" style="html=1;dashed=0;whiteSpace=wrap;shape=mxgraph.dfd.dataStoreID;align=left;spacingLeft=3;points=[[0,0],[0.5,0],[1,0],[0,0.5],[1,0.5],[0,1],[0.5,1],[1,1]];fillColor=#FF8000;" vertex="1" parent="1">
          <mxGeometry x="680" y="955" width="160" height="50" as="geometry" />
        </mxCell>
        <mxCell id="PoMqkKQTPA6UqUHY73O2-40" value="&lt;h2&gt;&lt;font color=&quot;#ffffff&quot;&gt;Update Users Order&lt;br&gt;&lt;/font&gt;&lt;/h2&gt;" style="ellipse;whiteSpace=wrap;html=1;aspect=fixed;fillColor=#FFD966;" vertex="1" parent="1">
          <mxGeometry x="400" y="920" width="120" height="120" as="geometry" />
        </mxCell>
        <mxCell id="PoMqkKQTPA6UqUHY73O2-41" value="&lt;h3&gt;Product Items&lt;/h3&gt;" style="html=1;verticalAlign=bottom;endArrow=block;curved=0;rounded=0;entryX=0;entryY=0.5;entryDx=0;entryDy=0;exitX=1;exitY=0.5;exitDx=0;exitDy=0;" edge="1" parent="1" source="PoMqkKQTPA6UqUHY73O2-40" target="PoMqkKQTPA6UqUHY73O2-38">
          <mxGeometry width="80" relative="1" as="geometry">
            <mxPoint x="570" y="970" as="sourcePoint" />
            <mxPoint x="790" y="1035" as="targetPoint" />
            <Array as="points" />
            <mxPoint as="offset" />
          </mxGeometry>
        </mxCell>
        <mxCell id="PoMqkKQTPA6UqUHY73O2-42" value="&lt;h2&gt;&lt;font color=&quot;#ffffff&quot;&gt;&amp;nbsp;&amp;nbsp;&amp;nbsp;&amp;nbsp;&amp;nbsp; Orders&lt;br&gt;&lt;/font&gt;&lt;/h2&gt;" style="html=1;dashed=0;whiteSpace=wrap;shape=mxgraph.dfd.dataStoreID;align=left;spacingLeft=3;points=[[0,0],[0.5,0],[1,0],[0,0.5],[1,0.5],[0,1],[0.5,1],[1,1]];fillColor=#FF8000;" vertex="1" parent="1">
          <mxGeometry x="-240" y="1440" width="160" height="50" as="geometry" />
        </mxCell>
        <mxCell id="PoMqkKQTPA6UqUHY73O2-44" value="&lt;h2&gt;&lt;font color=&quot;#ffffff&quot;&gt;Delete Previous User Order&lt;br&gt;&lt;/font&gt;&lt;/h2&gt;" style="ellipse;whiteSpace=wrap;html=1;aspect=fixed;fillColor=#FFD966;" vertex="1" parent="1">
          <mxGeometry x="40" y="1405" width="120" height="120" as="geometry" />
        </mxCell>
        <mxCell id="PoMqkKQTPA6UqUHY73O2-45" value="&lt;h3&gt;UserID&lt;/h3&gt;" style="html=1;verticalAlign=bottom;endArrow=block;curved=0;rounded=0;" edge="1" parent="1" source="PoMqkKQTPA6UqUHY73O2-23" target="PoMqkKQTPA6UqUHY73O2-44">
          <mxGeometry width="80" relative="1" as="geometry">
            <mxPoint x="100" y="1300" as="sourcePoint" />
            <mxPoint x="180" y="1300" as="targetPoint" />
          </mxGeometry>
        </mxCell>
        <mxCell id="PoMqkKQTPA6UqUHY73O2-46" value="&lt;h3&gt;Delete User Order&lt;/h3&gt;" style="html=1;verticalAlign=bottom;endArrow=block;curved=0;rounded=0;entryX=0;entryY=0.5;entryDx=0;entryDy=0;exitX=0;exitY=0.5;exitDx=0;exitDy=0;" edge="1" parent="1" source="PoMqkKQTPA6UqUHY73O2-44" target="PoMqkKQTPA6UqUHY73O2-42">
          <mxGeometry x="-0.1127" y="20" width="80" relative="1" as="geometry">
            <mxPoint x="-160" y="1540" as="sourcePoint" />
            <mxPoint x="-80" y="1540" as="targetPoint" />
            <Array as="points">
              <mxPoint y="1465" />
              <mxPoint y="1560" />
              <mxPoint x="-360" y="1560" />
              <mxPoint x="-360" y="1465" />
            </Array>
            <mxPoint as="offset" />
          </mxGeometry>
        </mxCell>
        <mxCell id="PoMqkKQTPA6UqUHY73O2-48" value="&lt;h3&gt;UserID&lt;/h3&gt;" style="html=1;verticalAlign=bottom;endArrow=block;curved=0;rounded=0;" edge="1" parent="1" source="PoMqkKQTPA6UqUHY73O2-31" target="PoMqkKQTPA6UqUHY73O2-40">
          <mxGeometry x="0.25" width="80" relative="1" as="geometry">
            <mxPoint x="450" y="880" as="sourcePoint" />
            <mxPoint x="530" y="880" as="targetPoint" />
            <mxPoint as="offset" />
          </mxGeometry>
        </mxCell>
        <mxCell id="PoMqkKQTPA6UqUHY73O2-49" value="&lt;h2&gt;&lt;font color=&quot;#ffffff&quot;&gt;Vendor&lt;br&gt;&lt;/font&gt;&lt;/h2&gt;" style="html=1;whiteSpace=wrap;fillColor=#97D077;" vertex="1" parent="1">
          <mxGeometry x="800" y="1110" width="160" height="120" as="geometry" />
        </mxCell>
        <mxCell id="PoMqkKQTPA6UqUHY73O2-50" value="&lt;h3&gt;Return To Vendor&lt;/h3&gt;" style="html=1;verticalAlign=bottom;endArrow=block;curved=0;rounded=0;" edge="1" parent="1" target="PoMqkKQTPA6UqUHY73O2-49">
          <mxGeometry x="0.6667" width="80" relative="1" as="geometry">
            <mxPoint x="880" y="810" as="sourcePoint" />
            <mxPoint x="920" y="880" as="targetPoint" />
            <mxPoint as="offset" />
          </mxGeometry>
        </mxCell>
        <mxCell id="PoMqkKQTPA6UqUHY73O2-51" value="&lt;h2&gt;&lt;font color=&quot;#ffffff&quot;&gt;Delivery Guy&lt;/font&gt;&lt;br&gt;&lt;/h2&gt;" style="html=1;whiteSpace=wrap;fillColor=#97D077;" vertex="1" parent="1">
          <mxGeometry x="580" y="1200" width="160" height="120" as="geometry" />
        </mxCell>
        <mxCell id="PoMqkKQTPA6UqUHY73O2-52" value="&lt;h3&gt;Shipping Request&lt;/h3&gt;" style="html=1;verticalAlign=bottom;endArrow=block;curved=0;rounded=0;entryX=0.5;entryY=0;entryDx=0;entryDy=0;exitX=0.5;exitY=1;exitDx=0;exitDy=0;" edge="1" parent="1" source="PoMqkKQTPA6UqUHY73O2-38" target="PoMqkKQTPA6UqUHY73O2-51">
          <mxGeometry x="0.661" y="-10" width="80" relative="1" as="geometry">
            <mxPoint x="690" y="1080" as="sourcePoint" />
            <mxPoint x="770" y="1080" as="targetPoint" />
            <Array as="points">
              <mxPoint x="760" y="1080" />
              <mxPoint x="660" y="1080" />
            </Array>
            <mxPoint as="offset" />
          </mxGeometry>
        </mxCell>
        <mxCell id="PoMqkKQTPA6UqUHY73O2-53" value="&lt;h3&gt;Ship Product To Customer&lt;/h3&gt;" style="html=1;verticalAlign=bottom;endArrow=block;curved=0;rounded=0;entryX=-0.019;entryY=0.417;entryDx=0;entryDy=0;entryPerimeter=0;" edge="1" parent="1" source="PoMqkKQTPA6UqUHY73O2-51" target="PoMqkKQTPA6UqUHY73O2-1">
          <mxGeometry x="-0.8109" width="80" relative="1" as="geometry">
            <mxPoint x="450" y="1270" as="sourcePoint" />
            <mxPoint x="530" y="1270" as="targetPoint" />
            <Array as="points">
              <mxPoint x="400" y="1260" />
              <mxPoint x="400" y="1640" />
              <mxPoint x="-440" y="1640" />
              <mxPoint x="-440" y="90" />
            </Array>
            <mxPoint as="offset" />
          </mxGeometry>
        </mxCell>
      </root>
    </mxGraphModel>
  </diagram>
</mxfile>
